<svg id="Laag_1" data-name="Laag 1" xmlns="http://www.w3.org/2000/svg" viewBox="0 0 1384 895"><defs><style>.cls-1,.cls-3{fill:#22856e;}.cls-10,.cls-2{fill:#171b1e;}.cls-3{stroke:#22856e;}.cls-10,.cls-3,.cls-8,.cls-9{stroke-miterlimit:10;}.cls-4,.cls-8{fill:#d3d3d3;}.cls-5,.cls-9{fill:#fff;}.cls-6{fill:#e5202e;}.cls-7{fill:#016f57;}.cls-8{stroke:#d3d3d3;}.cls-9{stroke:#fff;}.cls-10{stroke:#171b1e;}.cls-11{fill:#661411;}.cls-12{fill:#191c36;}</style></defs><path class="cls-1" d="M721,60.34s-.89,21.78,52.56,21.39S1122,81.34,1122,81.34s32-37.32,98-38.16,89,42.16,89,42.16h73v76h-79s-10.5-70.5-80.5-71.5-83,72-83,72-401-3.48-447,10.76Z"/><rect class="cls-2" width="1384.46" height="896.84"/><path class="cls-1" d="M1004.46,473.34l38.5-55s5-7,20-6,33,43,33,43,13-14,30-13,34,22,34,22V650.53L987,633.34Z"/><path class="cls-3" d="M350.78,325.84s33.68,24,104.68,25,281,0,281,0l86,87,31-32v-19l53-1s-4-19-51-48c0,0-9-9-65-12h-29l-21-20-21,20-20-20-20,20-20-20-20,19Z"/><polygon class="cls-4" points="820 383.75 820 651.23 976.64 651.23 976.64 388.48 976.64 385.31 976.64 360.62 837.9 360.62 837.15 381.59 820 383.75"/><polygon class="cls-5" points="914.55 360.62 1008.43 360.62 1008.43 384.69 1024.94 384.69 1024.94 651.23 914.55 651.23 914.55 360.62"/><rect class="cls-2" x="838.72" y="420.44" width="21.66" height="50.79"/><rect class="cls-2" x="872.63" y="420.23" width="21.66" height="50.79"/><rect class="cls-2" x="839.81" y="481.68" width="21.66" height="50.79"/><rect class="cls-2" x="873.72" y="481.47" width="21.66" height="50.79"/><rect class="cls-2" x="838.81" y="542.68" width="21.66" height="50.79"/><rect class="cls-2" x="872.72" y="542.47" width="21.66" height="50.79"/><path class="cls-3" d="M1324,413.85s3-57.51,61-57.51l-3,203.5-40-30.5Z"/><path class="cls-5" d="M1086.21,244.84s.25,9,10.25,9h11s4,1,4,6-5,4-5,4h-24s-5,1-5,5,3,5,3,5h7s3,1,3,6-4,4-4,4h-21s-4,1-4,5,4,5,4,5h33s5,0,5,5-4,5-4,5h-10s-4,1-4,6,5,5,5,5h61s6,0,6-5-4-5-4-5h-7s-5-1-5-5,5-5,5-5h38s4-1,4-5-3-5-3-5h-9s-4-2-4-5,2-5,6-5h36s4-2,4-6-3-5-5-5h-16s-4-2-4-6,6-3,6-3h11s8-3,8-10Z"/><path class="cls-5" d="M942.46,314.84h14s3-1,3-5-4-5-4-5-6-1-6-5,5-5,5-5h15s5-1,5-5-4-5-4-5h-59s-5,4,0,9h5s5,3,2,7h-13a2.94,2.94,0,0,0-3,3c0,3,2,3,2,3h18s-4,1-4,4,3,4,3,4Z"/><path class="cls-5" d="M1283.6,320.34h-14s-3,1-3,5,4,5,4,5,6,1,6,5-5,5-5,5h-15s-5,1-5,5,4,5,4,5h59s5-4,0-9h-5s-5-3-2-7h13a2.94,2.94,0,0,0,3-3c0-3-2-3-2-3h-18s4-1,4-4-3-4-3-4Z"/><circle class="cls-5" cx="1217.96" cy="161.34" r="40"/><path class="cls-3" d="M768,249.84s26-35,47-38,86-2,86-2,26,1,43,20h29s25,3,37,20Z"/><path class="cls-3" d="M1309.46,247.84s14-35,31-36,30,38,30,38Z"/><path class="cls-5" d="M1173.68,76.23s3-10,5-10,5,11,5,11,10,2,10,4-11,6-11,6-2,10-4,10-5-10-5-10-11-3-11-5S1173.68,76.23,1173.68,76.23Z"/><path class="cls-5" d="M1335.8,5.79s3-10,5-10,5,11,5,11,10,2,10,4-11,6-11,6-2,10-4,10-5-10-5-10-11-3-11-5S1335.8,5.79,1335.8,5.79Z"/><circle class="cls-5" cx="805.96" cy="55.34" r="5"/><circle class="cls-5" cx="1061.46" cy="37.84" r="5.5"/><ellipse class="cls-2" cx="721.96" cy="427.84" rx="8" ry="8.5"/><ellipse class="cls-2" cx="1072.96" cy="770.84" rx="8" ry="8.5"/><ellipse class="cls-2" cx="999.96" cy="621.84" rx="8" ry="8.5"/><rect class="cls-2" x="897.96" y="656.34" width="20" height="55"/><rect class="cls-2" x="939.96" y="656.34" width="20" height="55"/><rect class="cls-2" x="980.96" y="656.34" width="20" height="55"/><rect class="cls-2" x="1017.96" y="656.34" width="20" height="55"/><path class="cls-6" d="M284,296.34s43-91,137-98,107-103,107-103V.34H752s-65,18-77,125-71,150-149,158S284,296.34,284,296.34Z"/><path class="cls-6" d="M518,128.25s9.58-34.51,10-67.76,13.43,20.74,13.43,20.74l-14,52Z"/><path class="cls-7" d="M486.77,194.69S555.92,203.44,563.15.34l21.06,1.3S605.15,178.15,486.77,194.69Z"/><path class="cls-7" d="M318,295.17s19.58-64.48,97-84.71-15.57,56.77-15.57,56.77l-56,33Z"/><path class="cls-1" d="M325.46,296.84s43-91,137-98,107-103,107-103V.84h224s-65,18-77,125-71,150-149,158S325.46,296.84,325.46,296.84Z"/><path class="cls-1" d="M560.65,126s8.89-56.48,8.81-72.6,23.93,56.88,23.93,56.88l-23,43Z"/><path class="cls-1" d="M549.67,148.84s11.87-24.31,17.76-61.2,37.75,71.21,37.75,71.21Z"/><rect class="cls-2" x="1287.96" y="767.34" width="20" height="55"/><rect class="cls-2" x="1329.96" y="767.34" width="20" height="55"/><rect class="cls-2" x="1363.96" y="767.34" width="20" height="55"/><path class="cls-5" d="M969.46,75.84s3-10,5-10,5,11,5,11,10,2,10,4-11,6-11,6-2,10-4,10-5-10-5-10-11-3-11-5S969.46,75.84,969.46,75.84Z"/><circle class="cls-5" cx="876.46" cy="109.84" r="4.5"/><circle class="cls-5" cx="1328.46" cy="85.84" r="4.5"/><polygon class="cls-5" points="871.56 598.26 1099.39 598.23 1099.39 743.23 872.65 741.04 871.56 598.26"/><polygon class="cls-4" points="1096.39 598.23 1029.52 568.74 863.39 569.23 868.39 598.23 1096.39 598.23"/><polygon class="cls-8" points="1147.87 458.09 1147.39 622.23 1247.39 613.23 1246.46 496.71 1147.87 458.09"/><polygon class="cls-8" points="1147.69 499.34 1147.96 437.34 1246.96 437.34 1246.96 529.34 1147.69 499.34"/><polygon class="cls-8" points="1147.46 437.84 1197.46 386.84 1297.46 386.84 1246.46 436.84 1147.46 437.84"/><polygon class="cls-3" points="1297.46 386.84 1349.46 439.84 1349.46 549.84 1246.46 549.84 1246.46 437.84 1297.46 386.84"/><rect class="cls-2" x="1262.96" y="446.34" width="21" height="55"/><rect class="cls-2" x="1308.96" y="446.34" width="21" height="55"/><polygon class="cls-4" points="1262.75 540.26 1384.45 540.16 1385.39 704.23 1261.39 704.23 1262.75 540.26"/><polygon class="cls-9" points="1264.39 540.23 1291.89 518.34 1384.46 518.34 1384.39 540.23 1264.39 540.23"/><polygon class="cls-1" points="1148.46 551.84 1148.46 789.84 1270.46 784.84 1263.46 551.84 1148.46 551.84"/><polygon class="cls-4" points="1045.39 551.23 1148.39 552.23 1148.46 763.34 1045.39 745.23 1045.39 551.23"/><polygon class="cls-5" points="1148.5 561.23 1263.39 551.48 1150.32 540.26 1045.39 550.99 1148.5 561.23"/><polyline class="cls-2" points="1166.39 576.23 1196.88 573.65 1196.39 646.23 1166.39 655.23 1166.39 578.07"/><polyline class="cls-2" points="1214.13 572.4 1244.63 569.82 1244.13 642.4 1214.13 651.4 1214.13 574.24"/><polyline class="cls-2" points="1172.13 667.4 1202.63 664.82 1202.13 737.4 1172.13 746.4 1172.13 669.24"/><polyline class="cls-2" points="1217.13 662.4 1247.63 659.82 1247.13 732.4 1217.13 741.4 1217.13 664.24"/><rect class="cls-2" x="664.58" y="717.89" width="25.23" height="56.78"/><rect class="cls-2" x="704.07" y="717.66" width="25.23" height="56.78"/><rect class="cls-2" x="889.39" y="624.23" width="27" height="62"/><rect class="cls-2" x="935.39" y="624.23" width="27" height="62"/><rect class="cls-2" x="978.39" y="624.23" width="27" height="62"/><polygon class="cls-8" points="1184.96 854.34 1191.96 854.34 1262.96 851.34 1262.96 739.34 1223.96 704.34 1181.27 739.76 1180.96 856.34 1184.96 854.34"/><polygon class="cls-5" points="1384.46 737.34 1384.46 704.34 1223.96 704.34 1262.96 739.34 1384.96 739.34 1384.46 737.34"/><polygon class="cls-1" points="1262.96 739.34 1262.96 851.34 1384.96 851.34 1384.96 737.34 1262.96 739.34"/><polygon class="cls-9" points="1105.96 781.34 1071.96 744.34 1033.96 781.34 919.27 783.34 918.96 865.34 1212.96 865.34 1212.96 783.34 1105.96 781.34"/><polygon class="cls-8" points="1036.39 781.23 1135.03 781.23 1184.63 781.34 1200.39 781.23 1166.84 729.34 875.39 729.23 884.39 781.23 1036.39 781.23"/><rect class="cls-2" x="1025.39" y="805.23" width="31" height="51"/><rect class="cls-2" x="1075.39" y="805.23" width="31" height="51"/><rect class="cls-2" x="1127.39" y="805.23" width="31" height="51"/><path class="cls-6" d="M998.62,894.57V865.34s219.34-3,264.34-36,64-54.79,121.5-58.4l-.5,124.4Z"/><polygon class="cls-4" points="677.39 436.23 776.45 436.34 710.39 379.23 628.39 387.23 677.39 436.23"/><polygon class="cls-4" points="553.96 437.34 448.83 350.68 735.96 350.34 821.96 437.34 553.96 437.34"/><polygon class="cls-5" points="821.46 559.84 553.96 559.84 553.96 435.84 677.7 435.84 720.12 401.84 763.72 435.84 821.46 435.84 821.46 559.84"/><rect class="cls-2" x="582.39" y="408.23" width="20" height="55"/><rect class="cls-2" x="582.39" y="485.23" width="20" height="55"/><rect class="cls-2" x="672.39" y="453.23" width="21" height="55"/><rect class="cls-2" x="638.39" y="453.23" width="20" height="55"/><polygon class="cls-4" points="642.66 535.08 642.66 774.23 825.12 774.23 825.12 539.31 825.12 536.48 825.12 514.39 663.51 514.39 662.64 533.14 642.66 535.08"/><polygon class="cls-5" points="752.79 514.39 862.16 514.39 862.16 536.42 881.39 536.42 881.39 780.23 752.79 780.23 752.79 514.39"/><rect class="cls-2" x="664.47" y="581.26" width="25.23" height="56.78"/><rect class="cls-2" x="703.96" y="581.03" width="25.23" height="56.78"/><rect class="cls-2" x="665.74" y="649.71" width="25.23" height="56.78"/><rect class="cls-2" x="705.23" y="649.48" width="25.23" height="56.78"/><rect class="cls-2" x="770.39" y="544.23" width="27" height="62"/><rect class="cls-2" x="816.39" y="544.23" width="27" height="62"/><rect class="cls-2" x="772.39" y="626.23" width="27" height="62"/><rect class="cls-2" x="816.39" y="624.23" width="27" height="62"/><path class="cls-6" d="M263,347.06s-4,97.28,56,103.28,126,73,120,167,31,108,70,114,158,22,166,109l6,57H985s11-94-94-147c0,0-43-13-132-15s-143-92-143-92-23-34-17-116-57-138-57-138-42-35-135-36-117-36-117-36Z"/><path class="cls-6" d="M263,347.34s6-32,8-33,40,9,40,9l-13,33Z"/><path class="cls-7" d="M367.39,449.23s73,31,86,73,25.84,137.51,40.67,162,44.83-150.51,44.83-150.51l-117-98Z"/><path class="cls-7" d="M624.12,742.75s95.27,52.48,94.27,152.48l24.57-.39,2.43-100.61-81-59Z"/><path class="cls-1" d="M311.5,344.56s-4,97.28,56,103.28,126,73,120,167,31,108,70,114,158,22,166,109l6,57h304s11-94-94-147c0,0-43-13-132-15s-143-92-143-92-23-34-17-116-57-138-57-138-42-35-135-36-117-36-117-36Z"/><polygon class="cls-8" points="675.39 435.23 774.45 435.34 714.58 381.7 650.39 399.99 675.39 435.23"/><rect class="cls-2" x="763.39" y="453.23" width="21" height="55"/><rect class="cls-2" x="729.39" y="453.23" width="20" height="55"/><polygon class="cls-10" points="633.21 323.73 767.96 324.71 755.39 290.11 628.39 277.11 633.21 323.73"/><rect class="cls-2" x="665.74" y="879.45" width="718.22" height="17.89"/><rect class="cls-2" y="-32.04" width="1385.39" height="38.13"/><path class="cls-6" d="M173.46,325.84s-7-5-7-9h101l15.71,9.36.29,14.64h-10v-15Z"/><polygon class="cls-11" points="305.76 341.34 283.46 341.34 283.46 325.84 305.76 341.34"/><polygon class="cls-5" points="409.96 254.34 414.96 254.34 404.96 316.34 398.96 317.34 409.96 254.34"/><path class="cls-6" d="M339,324.84v-10h67s1.11,10-7.81,10Z"/><path class="cls-5" d="M166,316.34H268l54,35s3,4,17,5l-.5-41.5h62l-21-30h-186s-9-1-19,9A29.27,29.27,0,0,0,166,316.34Z"/><path class="cls-2" d="M167.8,304.17l24.16.17s5,0,5-4-4-5-4-5H173.07A27.94,27.94,0,0,0,167.8,304.17Z"/><circle class="cls-12" cx="212.46" cy="299.84" r="4.5"/><circle class="cls-12" cx="232.46" cy="299.84" r="4.5"/><circle class="cls-12" cx="252.46" cy="299.84" r="4.5"/><circle class="cls-12" cx="272.46" cy="299.84" r="4.5"/><circle class="cls-12" cx="293.46" cy="299.84" r="4.5"/><circle class="cls-12" cx="313.46" cy="299.84" r="4.5"/><circle class="cls-12" cx="334.46" cy="299.84" r="4.5"/><circle class="cls-12" cx="354.46" cy="299.84" r="4.5"/><polygon class="cls-6" points="379.46 284.84 400.46 253.84 410.46 253.84 400.46 314.84 379.46 284.84"/></svg>