<?xml version="1.0" encoding="utf-8"?>
<!-- Generator: Adobe Illustrator 24.1.2, SVG Export Plug-In . SVG Version: 6.00 Build 0)  -->
<svg version="1.1" id="Laag_1" xmlns="http://www.w3.org/2000/svg" xmlns:xlink="http://www.w3.org/1999/xlink" x="0px" y="0px"
	 viewBox="0 0 650 365" style="enable-background:new 0 0 650 365;" xml:space="preserve">
<style type="text/css">
	.st0{fill:#171B1E;}
	.st1{fill:#2D333B;}
	.st2{fill:#22856E;}
	.st3{fill:#D3D2D2;}
	.st4{fill:#E62B3F;}
	.st5{fill:#FFFFFF;}
	.st6{fill:#F5F3F4;}
	.st7{fill:#D3D3D3;}
	.st8{fill:#FFFFFF;stroke:#FFFFFF;stroke-miterlimit:10;}
	.st9{fill:#F5F3F4;stroke:#F5F3F4;stroke-miterlimit:10;}
	.st10{fill:#D3D2D2;stroke:#D3D2D2;stroke-miterlimit:10;}
</style>
<rect y="-0.4" class="st0" width="650" height="365.8"/>
<path class="st1" d="M281.6,198c0,0-4.8-60.2,46.8-79s44-6.6,94.3-39.4s69.9-42.3,105-36.4s57.5,50,75.9,100.4
	c18.3,50.3,34.7,86.4,14.9,126.7c-19.8,40.3-76.4,29.3-76.4,29.3S302.7,305.5,281.6,198z"/>
<path class="st2" d="M547.2,267.9c0,0,7-13.3,21.3-8.8c14.3,4.5,10.9,5.8,26.7,7.1c15.9,1.3,21.6,2.5,28.8,9.4
	c7.2,6.9,6.3,19.7,3.6,33.1c-2.7,13.4-3.8,23.5-13.8,28.7c-10,5.2-21.3-6.3-21.3-6.3S537.4,293.6,547.2,267.9z"/>
<ellipse class="st3" cx="519.4" cy="352.4" rx="111.2" ry="44.6"/>
<path class="st4" d="M176.8,123.4c0,0,19.1-40.2,76.5-46.6c0,0,16.9-0.8,35.4-37.8S334.2-4,334.2-4h80.3c0,0-60.6,41.9-69.9,58.2
	s-22.3,47.7-73.1,58.1s-69.3,20.7-69.3,20.7L176.8,123.4z"/>
<path class="st2" d="M183.1,123.8c0,0,19.1-40.2,76.5-46.6c0,0,16.9-0.8,35.4-37.8c18.5-37,45.4-43.1,45.4-43.1h80.3
	c0,0-60.6,41.9-69.9,58.2s-22.3,47.7-73.1,58.1s-69.3,20.7-69.3,20.7L183.1,123.8z"/>
<circle class="st3" cx="555" cy="67.9" r="17.2"/>
<circle class="st5" cx="564.4" cy="129.8" r="1.2"/>
<circle class="st5" cx="454.5" cy="95.3" r="1.2"/>
<ellipse class="st0" cx="469.5" cy="333.4" rx="3.4" ry="3.7"/>
<ellipse class="st0" cx="438" cy="269.3" rx="3.4" ry="3.7"/>
<circle class="st5" cx="515.6" cy="41.5" r="0.9"/>
<circle class="st5" cx="513.8" cy="134.7" r="1.1"/>
<rect x="321.5" y="196.6" class="st0" width="8.6" height="23.7"/>
<circle class="st6" cx="553.8" cy="69.9" r="17.2"/>
<path class="st2" d="M417.8,268.7c0,0-6.2-21,9.8-31.6s14.3-5.7,28.8-21.3c14.5-15.5,20.4-20.4,32.7-21
	c12.3-0.6,23.2,13.3,33.1,29.7c10,16.4,18.2,28,14.6,43.8c-3.6,15.8-23.6,16.3-23.6,16.3S433.1,305.2,417.8,268.7z"/>
<path class="st2" d="M265.2,238.8c0,0-4.6-15.9,7.3-23.9c11.9-8.1,10.6-4.3,21.4-16.1s15.1-15.4,24.2-15.9s17.2,10.1,24.6,22.5
	c7.4,12.4,13.5,21.2,10.8,33.1c-2.7,12-17.5,12.3-17.5,12.3S276.5,266.4,265.2,238.8z"/>
<circle class="st5" cx="400.7" cy="127.3" r="1.1"/>
<circle class="st5" cx="581.1" cy="96.6" r="1.1"/>
<polygon class="st2" points="419,317.2 459.6,327.5 457.6,335 421.1,327.3 "/>
<circle class="st5" cx="460.7" cy="50.6" r="1.2"/>
<circle class="st5" cx="586.9" cy="51.7" r="1.2"/>
<circle class="st5" cx="613.4" cy="111.2" r="1.1"/>
<g>
	<g>
		<g>
			<polygon class="st6" points="512.6,230.8 512.6,319.6 563.3,317.7 560.4,230.8 			"/>
			<g>
				<polygon class="st3" points="321.5,161.7 321.5,293.9 361.4,293.9 361.4,164 361.4,162.5 361.4,150.3 326,150.3 325.8,160.6 
									"/>
				<polygon class="st6" points="361.4,150.3 385.4,150.3 385.4,162.2 389.6,162.2 389.6,293.9 361.4,293.9 				"/>
				<g>
					<polygon class="st3" points="587,165.2 587,267.4 531.1,267.4 531.1,167 531.1,165.8 531.1,156.3 580.6,156.3 580.9,164.4 
											"/>
					<polygon class="st6" points="553.3,156.3 519.7,156.3 519.7,165.5 513.8,165.5 513.8,267.4 553.3,267.4 					"/>
					
						<rect x="572.6" y="179.2" transform="matrix(-1 -1.224647e-16 1.224647e-16 -1 1152.9601 377.8321)" class="st6" width="7.7" height="19.4"/>
					
						<rect x="560.5" y="179.1" transform="matrix(-1 -1.224647e-16 1.224647e-16 -1 1128.7461 377.6749)" class="st6" width="7.7" height="19.4"/>
					
						<rect x="572.2" y="202.6" transform="matrix(-1 -1.224647e-16 1.224647e-16 -1 1152.1819 424.6482)" class="st6" width="7.7" height="19.4"/>
					
						<rect x="560.1" y="202.5" transform="matrix(-1 -1.224647e-16 1.224647e-16 -1 1127.9679 424.491)" class="st6" width="7.7" height="19.4"/>
					
						<rect x="560.5" y="225.9" transform="matrix(-1 -1.224647e-16 1.224647e-16 -1 1128.6821 471.126)" class="st6" width="7.7" height="19.4"/>
				</g>
				<g>
					<polygon class="st3" points="389,162.5 389,280.9 452,280.9 452,164.6 452,163.1 452,152.2 396.2,152.2 395.9,161.5 					"/>
					<polygon class="st6" points="427.1,152.2 464.8,152.2 464.8,162.9 471.5,162.9 471.5,280.9 427.1,280.9 					"/>
					<rect x="396.6" y="178.7" class="st6" width="8.7" height="22.5"/>
					<rect x="410.2" y="178.6" class="st6" width="8.7" height="22.5"/>
					<rect x="397" y="205.8" class="st6" width="8.7" height="22.5"/>
					<rect x="410.6" y="205.7" class="st6" width="8.7" height="22.5"/>
					<rect x="410.2" y="232.7" class="st6" width="8.7" height="22.5"/>
				</g>
				<polygon class="st7" points="553.8,230.4 604.4,230.4 604.8,298.7 553.2,298.7 				"/>
				<polygon class="st8" points="554,231 565.4,221.8 603.9,221.8 603.8,231 				"/>
				<polygon class="st7" points="469.8,230.9 515.5,231.3 515.5,319.2 469.8,311.7 				"/>
				<polyline class="st7" points="523,241.3 535.7,240.2 535.5,270.5 523,274.2 523,242.1 				"/>
				<polyline class="st7" points="542.8,239.7 555.5,238.7 555.3,268.9 542.8,272.6 542.8,240.5 				"/>
				<polyline class="st7" points="525.4,279.3 538,278.2 537.8,308.4 525.4,312.2 525.4,280 				"/>
				<polyline class="st7" points="544.1,277.2 556.7,276.1 556.5,306.3 544.1,310.1 544.1,278 				"/>
				<g>
					<g>
						<polygon class="st6" points="361.4,282.2 426.9,282.2 426.9,249.2 469.7,249.2 469.7,365.5 361.4,365.5 						"/>
						<polygon class="st3" points="469.7,249.2 512.6,249.2 512.6,316.1 546.8,316.1 546.8,367.9 469.7,365.5 						"/>
					</g>
					<polygon class="st3" points="360.3,303.3 360.3,276.2 356.8,276.2 356.8,271.6 391.3,271.6 391.3,365 360.7,365 					"/>
					<rect x="436.2" y="251.8" class="st3" width="8.6" height="25.9"/>
					<rect x="451" y="251.8" class="st3" width="8.6" height="25.9"/>
					<rect x="436.2" y="283.4" class="st3" width="8.6" height="25.9"/>
					<rect x="451" y="283.4" class="st3" width="8.6" height="25.9"/>
					<rect x="436.2" y="315.2" class="st3" width="8.6" height="25.9"/>
					<rect x="451" y="315.2" class="st3" width="8.6" height="25.9"/>
					<polygon class="st6" points="391.3,271.4 426.9,271.4 426.6,283.5 391.3,283.5 					"/>
					<rect x="396.2" y="277.2" class="st3" width="9.6" height="21.3"/>
					<rect x="412.7" y="277.2" class="st3" width="9.6" height="21.3"/>
					<rect x="396.2" y="304.3" class="st3" width="9.6" height="21.3"/>
					<rect x="412.7" y="304.3" class="st3" width="9.6" height="21.3"/>
					<rect x="395.7" y="331.4" class="st3" width="9.6" height="21.3"/>
					<rect x="412.1" y="331.4" class="st3" width="9.6" height="21.3"/>
				</g>
				<polygon class="st7" points="543.8,289 613,289 613.6,371.5 543,371.5 				"/>
				<polygon class="st8" points="544.7,289 560.4,278 613,278 613,289 				"/>
				<rect x="553.3" y="296.7" class="st6" width="13.3" height="31.2"/>
				<rect x="574.1" y="296.7" class="st6" width="13.3" height="31.2"/>
				<rect x="594.5" y="296.7" class="st6" width="13.3" height="31.2"/>
				<rect x="553.7" y="330" class="st6" width="13.3" height="31.2"/>
				<rect x="574.5" y="330" class="st6" width="13.3" height="31.2"/>
			</g>
		</g>
		<rect x="594.3" y="330.3" class="st6" width="13.8" height="31.1"/>
	</g>
	<rect x="396.8" y="232.5" class="st6" width="8.9" height="22.7"/>
</g>
<path class="st4" d="M177.5,143.3c0,0-7.3,26.7,41.8,58.6s31.4,65,37.5,78.4c6,13.3,13.8,24.1,47.4,37.9s36.8,23.3,44.5,65.9H466
	c0,0-28.7-49.6-77-68.5c-48.3-18.9-59-38.3-59-38.3s-28.9-42.2-37-80.1c-8.2-37.9-82.9-59.1-82.9-59.1L177.5,143.3z"/>
<path class="st2" d="M187.5,140.4c0,0-7.3,26.7,41.8,58.6s31.4,65,37.5,78.4c6,13.3,13.8,24.1,47.4,37.9
	c33.6,13.8,36.8,23.3,44.5,65.9H476c0,0-28.7-49.6-77-68.5s-59-38.3-59-38.3s-28.9-42.2-37-80.1c-8.2-37.9-82.9-59.1-82.9-59.1
	L187.5,140.4z"/>
<path class="st2" d="M455.3,353.7c0,0,138.5,12.7,173.1,7.5c0,0-1.9,3.8-3.9,5.8l-129.9,19.7L451,363.1L455.3,353.7z"/>
<g>
	<path class="st9" d="M212.1,128.8l18.9-25.5c0,0,1-1.9,3.9-1.7c2.9,0.2,5.8-0.4,5.8,1.9c0,2.2-8.1,28-8.1,28s7,3,7.4,6.3
		c0.4,3.3-33.1,9.2-33.1,9.2s-3.8,1-13.2-0.1c-9.3-1.1-48.3-5.5-48.3-5.5s-12.7-1.6-15.9-3.1c-3.3-1.5-10-4.2-7.4-8.9
		c2.7-4.8,12.5-7.9,18.1-8.5s53.3,5.6,53.3,5.6L212.1,128.8z"/>
	<path class="st3" d="M145.3,141.6c0,0-9.1,1.7-20.4,4.2c0,0-3.3,0.8,0.6,1.8c3.9,1,13.6,3.3,13.6,3.3s25-2.8,37.8-5.7L145.3,141.6z
		"/>
	<path class="st9" d="M265,130.2c0,0,2.9-1,0.4-1.8c-2.6-0.9-5.6-0.5-5.6-0.5s-24,5.1-33.6,7.7c0,0-2.2,0.4,0.8,1.3
		c3,0.9,4.3,0.8,4.3,0.8L265,130.2z"/>
	<path class="st10" d="M198.1,139.7c0,0-22.1-1-27.3-4.3c0,0-1.2-0.4,1.9-1.3c3.1-0.9,83.4-20.1,83.4-20.1s11.2-1.3,11.6-0.1
		C268.3,115,198.1,139.7,198.1,139.7z"/>
	<path class="st4" d="M261,116.5l-84.5,20.2c0,0-2.9,0.7-5.7-1.8c0,0-0.1-0.3,5.5-1.7c5.7-1.4,79.8-19.2,79.8-19.2l9.8-0.6
		c0,0,3.4,0,0.7,1.2C264,115.7,261,116.5,261,116.5z"/>
	<path class="st10" d="M238.2,136.2l-27.7,6.8c0,0-7.4,2-12.6,1.3c-5.2-0.7-74.7-9.7-74.7-9.7s4.5,3.7,10.3,4.7
		c5.9,1.1,43.3,5.8,43.3,5.8l24.5,2.2c0,0,2.4,0.2,8.9-1c6.4-1.3,20.1-4.7,22.4-5c2.3-0.3,7.8-2.4,7.3-3.6
		C239.6,136.6,238.2,136.2,238.2,136.2z"/>
	<circle class="st1" cx="171.1" cy="128.1" r="2.4"/>
	<circle class="st1" cx="163.7" cy="127.3" r="2.4"/>
	<circle class="st1" cx="156.8" cy="126.7" r="2.4"/>
	<circle class="st1" cx="149.5" cy="125.8" r="2.4"/>
	<path class="st1" d="M141.2,120.5c0,0,0.4,7.6-5.9,6.8c-6.4-0.8-10.5-1.4-10.5-1.4S133,120.4,141.2,120.5z"/>
</g>
<path class="st5" d="M466.4,127.9c0,0,6.8-3.2,4.6-10.3c0,0,3.2,6.8,9.7,4.3c0,0-7.2,2.2-4.1,10.1C476.6,132,475,125.1,466.4,127.9z
	"/>
<path class="st5" d="M412.2,84.4c0,0,6.8-3.2,4.6-10.3c0,0,3.2,6.8,9.7,4.3c0,0-7.2,2.2-4.1,10.1C422.3,88.5,420.7,81.6,412.2,84.4z
	"/>
<path class="st5" d="M487.1,65.1c0,0,6.5-0.4,6.9-6.9c0,0,0.4,6.5,6.5,6.5c0,0-6.5-0.4-6.5,6.9C494,71.5,494.9,65.5,487.1,65.1z"/>
<path class="st5" d="M529.2,105.9c0,0,6.5-0.4,6.9-6.9c0,0,0.4,6.5,6.5,6.5c0,0-6.5-0.4-6.5,6.9C536,112.4,536.9,106.4,529.2,105.9z
	"/>
<path class="st5" d="M610.4,76.6c0,0-6.7-3.3-10.9,2.9c0,0,3.3-6.7-2.7-10.2c0,0,6.2,4.2,10.5-3.1C607.2,66.1,602.9,71.6,610.4,76.6
	z"/>
<rect y="361.2" class="st0" width="650" height="38.2"/>
</svg>
