<?xml version="1.0" encoding="utf-8"?>
<!-- Generator: Adobe Illustrator 24.1.2, SVG Export Plug-In . SVG Version: 6.00 Build 0)  -->
<svg version="1.1" id="Laag_1" xmlns="http://www.w3.org/2000/svg" xmlns:xlink="http://www.w3.org/1999/xlink" x="0px" y="0px"
	 viewBox="0 0 400 300" style="enable-background:new 0 0 400 300;" xml:space="preserve">
<style type="text/css">
	.st0{fill:#2E343C;}
	.st1{fill:none;stroke:#D3D2D2;stroke-miterlimit:10;}
	.st2{fill:#D3D2D2;stroke:#D3D2D2;stroke-miterlimit:10;}
	.st3{fill:#F5F3F4;stroke:#D3D2D2;stroke-miterlimit:10;}
	.st4{fill:none;stroke:#D3D2D2;stroke-width:2;stroke-miterlimit:10;}
	.st5{fill:#F5F3F4;}
	.st6{fill:#D3D2D2;}
	.st7{fill:#F5F3F4;stroke:#F5F3F4;stroke-miterlimit:10;}
	.st8{fill:#E62741;}
	.st9{fill:none;stroke:#F5F3F4;stroke-miterlimit:10;}
	.st10{fill:#FFFFFF;}
</style>
<path class="st0" d="M58.5,174.8c0,0-4.1-56.8,39.6-74.6S135.3,94,177.9,63s59.1-39.9,88.8-34.4s48.6,47.2,64.2,94.8
	c15.5,47.5,29.3,81.5,12.6,119.6c-16.7,38-64.6,27.7-64.6,27.7S76.4,276.2,58.5,174.8z"/>
<path class="st1" d="M215.5,47.1c0,6-21.7,6-21.7,0s4.9-10.8,10.8-10.8S215.5,41.1,215.5,47.1z"/>
<path class="st1" d="M218.1,46.1c0,7.3-26.8,7.3-26.8,0s6-13.2,13.4-13.2S218.1,38.8,218.1,46.1z"/>
<path class="st2" d="M130.1,270.5v-29.1c0,0,0.2-3.7,3.7-3.7l142.8,0.3c0,0,3.1-0.2,3.1,2.9v29.6c0,0-0.4,2.9-2.7,3H133.6
	C133.6,273.4,130.1,273.6,130.1,270.5z"/>
<polygon class="st3" points="162.1,87.9 165.9,84.2 251.2,84.4 254.7,87.6 254.7,112.9 162.1,112.5 "/>
<line class="st4" x1="162.1" y1="91.6" x2="254.7" y2="91.6"/>
<line class="st1" x1="165.9" y1="84.2" x2="165.9" y2="112.6"/>
<path class="st5" d="M147.6,116.2v35.9c0,0,0.1,3.1,3.1,3.1l93.6,0c0,0,3.2-0.4,3.2-3.3v-35.8c0,0,0.4-3.3-3.1-3.3h-91.9
	C152.6,112.9,148.1,112.2,147.6,116.2z"/>
<rect x="138.8" y="155.3" class="st6" width="131.1" height="17.7"/>
<polygon class="st6" points="151.3,195.2 151.3,212.7 273.3,212.9 273.3,195.2 "/>
<polygon class="st7" points="153.2,212.7 153.2,237.7 269.9,237.6 269.9,212.9 "/>
<path class="st3" d="M176,52.4v28c0,0-0.2,3.9,4,3.9l50.4,0c0,0,3-0.6,2.9-4.1l0-27.8c0,0-0.5-3.5-2.8-3.8h-51.1
	C179.4,48.6,176,48.3,176,52.4z"/>
<rect x="169.4" y="112.9" class="st6" width="2.7" height="41.6"/>
<rect x="222.7" y="112.9" class="st6" width="3.1" height="41.7"/>
<rect x="147.6" y="129.8" class="st6" width="99.9" height="2"/>
<path class="st8" d="M188.4,143.1v-3.4h-5.5c0,0-1.5,0-1.5,1.5s1.4,1.7,1.4,1.7L188.4,143.1z"/>
<path class="st8" d="M208.5,143.1v-3.4h5.5c0,0,1.5,0,1.5,1.5c0,1.5-1.4,1.7-1.4,1.7L208.5,143.1z"/>
<rect x="188.4" y="139.6" class="st6" width="20.1" height="3.4"/>
<path class="st7" d="M137.5,237.6v35.8l-4.5,0c0,0-2.9-0.2-2.9-3.9v-28.2c0,0,0.1-3.7,3.7-3.7H137.5z"/>
<path class="st7" d="M272.3,237.6v35.8l4.5,0c0,0,2.9-0.2,2.9-3.9v-28.2c0,0-0.1-3.7-3.7-3.7H272.3z"/>
<rect x="158.2" y="237.6" class="st7" width="4" height="35.8"/>
<rect x="247.6" y="237.6" class="st7" width="4" height="35.8"/>
<line class="st1" x1="183.8" y1="48.6" x2="183.8" y2="84.2"/>
<line class="st1" x1="225.8" y1="48.6" x2="225.8" y2="84.2"/>
<rect x="176" y="59.5" class="st3" width="7.7" height="3.8"/>
<rect x="225.8" y="59.5" class="st3" width="7.7" height="3.8"/>
<rect x="183.8" y="48.6" class="st6" width="13.8" height="2.3"/>
<rect x="211.9" y="48.6" class="st6" width="13.8" height="2.3"/>
<line class="st1" x1="183.8" y1="63.2" x2="225.8" y2="63.2"/>
<rect x="137.5" y="248.6" class="st9" width="142.2" height="3.6"/>
<line class="st6" x1="137.5" y1="250.4" x2="272.3" y2="250.4"/>
<circle class="st8" cx="204.9" cy="263.3" r="6.1"/>
<circle class="st6" cx="204.9" cy="263.3" r="4"/>
<rect x="201.6" y="255.2" class="st7" width="6.6" height="3.9"/>
<path class="st8" d="M145,155.3c0,0,2.3,3.9,0,7.6c-2.3,3.8,1.6,10.1,1.6,10.1h-7.8v-17.7H145z"/>
<path class="st8" d="M263.6,155.3c0,0-2.3,3.8,0,7.6c2.3,3.8-1.6,10-1.6,10h7.8v-17.6H263.6z"/>
<rect x="193.8" y="58.4" class="st8" width="1.5" height="10.3"/>
<rect x="214.2" y="58.1" class="st8" width="1.5" height="10.3"/>
<rect x="176.8" y="195.2" class="st9" width="4.6" height="42.6"/>
<rect x="231.4" y="195.2" class="st9" width="4.6" height="42.6"/>
<rect x="176.8" y="212.2" class="st1" width="4.6" height="26.7"/>
<rect x="231.4" y="211.8" class="st1" width="4.6" height="26.7"/>
<ellipse class="st8" cx="176.8" cy="252.1" rx="3.1" ry="7.3"/>
<ellipse class="st8" cx="233.6" cy="252.1" rx="3.1" ry="7.3"/>
<g>
	<circle class="st8" cx="134.6" cy="240.4" r="1.5"/>
	<circle class="st8" cx="134.6" cy="246.5" r="1.5"/>
	<circle class="st8" cx="134.6" cy="252.5" r="1.5"/>
	<circle class="st8" cx="134.6" cy="258.6" r="1.5"/>
	<circle class="st8" cx="134.6" cy="264.6" r="1.5"/>
	<circle class="st8" cx="134.6" cy="270.6" r="1.5"/>
</g>
<g>
	<circle class="st8" cx="275.6" cy="240.2" r="1.5"/>
	<circle class="st8" cx="275.6" cy="246.2" r="1.5"/>
	<circle class="st8" cx="275.6" cy="252.3" r="1.5"/>
	<circle class="st8" cx="275.6" cy="258.3" r="1.5"/>
	<circle class="st8" cx="275.6" cy="264.4" r="1.5"/>
	<circle class="st8" cx="275.6" cy="270.4" r="1.5"/>
</g>
<ellipse class="st8" cx="179.7" cy="210.9" rx="7.5" ry="3.9"/>
<ellipse class="st8" cx="233.6" cy="210.9" rx="7.5" ry="3.9"/>
<rect x="141.4" y="173.6" class="st7" width="128.4" height="21.6"/>
<rect x="162.2" y="173.6" class="st8" width="3.6" height="21.6"/>
<rect x="244" y="173.6" class="st8" width="3.6" height="21.6"/>
<path class="st1" d="M216,184.1h-21.6c-0.8,0-1.5-0.7-1.5-1.5V181c0-0.8,0.7-1.5,1.5-1.5H216c0.8,0,1.5,0.7,1.5,1.5v1.7
	C217.4,183.4,216.8,184.1,216,184.1z"/>
<path class="st6" d="M187.2,181.8c0,0,2.6-3.3,7.1-3.6s4,4.4,4,4.4s-0.1,3.6-5.9,2.7C192.5,185.2,188.3,184.3,187.2,181.8z"/>
<path class="st6" d="M222.7,181.8c0,0-2.6-3.3-7.1-3.6s-4,4.4-4,4.4s0.1,3.6,5.9,2.7C217.4,185.2,221.6,184.3,222.7,181.8z"/>
<circle class="st7" cx="190.4" cy="181.8" r="0.4"/>
<circle class="st7" cx="219.6" cy="181.8" r="0.4"/>
<polygon class="st1" points="158.5,173.6 158.2,195.2 169.4,195.2 169.4,173.6 "/>
<polygon class="st1" points="240.2,173.6 239.9,195.2 251.2,195.2 251.2,173.6 "/>
<polyline class="st1" points="165.9,112.6 207.7,92.1 251.2,112.6 251.2,84.4 "/>
<line class="st1" x1="208.4" y1="92.2" x2="208.6" y2="112.6"/>
<ellipse class="st8" cx="208.4" cy="92.2" rx="4.9" ry="3"/>
<ellipse class="st6" cx="194.4" cy="57.7" rx="3.7" ry="2.3"/>
<ellipse class="st6" cx="215.7" cy="57.7" rx="3.7" ry="2.3"/>
<rect x="187" y="65.5" class="st6" width="10.6" height="6.4"/>
<rect x="211.9" y="65.5" class="st6" width="10.7" height="6.4"/>
<ellipse transform="matrix(0.9481 -0.3179 0.3179 0.9481 -28.9671 40.2153)" class="st10" cx="108.7" cy="108.9" rx="0.7" ry="0.7"/>
<circle class="st10" cx="104" cy="83.6" r="0.7"/>
<path class="st10" d="M121.1,124.3c0,0,3.1-3,0.6-6.4c0,0,3,3.1,6,0.6c0,0-3.5,2.5-0.4,6.2C127.3,124.7,125.2,121.2,121.1,124.3z"/>
<path class="st10" d="M83.9,120.9c0,0,3.1-3,0.6-6.4c0,0,3,3.1,6,0.6c0,0-3.5,2.5-0.4,6.2C90.1,121.3,88,117.9,83.9,120.9z"/>
<path class="st10" d="M124.1,96.5c0,0,3.4-1.4,2.5-5c0,0,1.4,3.4,4.7,2.3c0,0-3.6,1-2.3,4.9C129,98.7,128.4,95.3,124.1,96.5z"/>
<path class="st10" d="M151,101.1c0,0,3.4-1.4,2.5-5c0,0,1.4,3.4,4.7,2.3c0,0-3.6,1-2.3,4.9C155.8,103.3,155.2,99.9,151,101.1z"/>
<ellipse transform="matrix(0.6035 -0.7974 0.7974 0.6035 49.6071 228.6079)" class="st10" cx="254.7" cy="64.4" rx="0.7" ry="0.7"/>
<ellipse transform="matrix(0.6035 -0.7974 0.7974 0.6035 75.464 241.722)" class="st10" cx="280.8" cy="45" rx="0.5" ry="0.5"/>
<circle class="st10" cx="199.1" cy="44.5" r="0.6"/>
<circle class="st10" cx="262" cy="36.2" r="0.7"/>
<path class="st10" d="M298,75c0,0,4.2,0.9,5.6-3.1c0,0-0.9,4.2,2.9,5.3c0,0-4-1.5-5.3,3.2C301.2,80.4,302.8,76.7,298,75z"/>
<path class="st10" d="M236.9,36.4c0,0,4.2,0.9,5.6-3.1c0,0-0.9,4.2,2.9,5.3c0,0-4-1.5-5.3,3.2C240.1,41.7,241.7,38.1,236.9,36.4z"/>
<path class="st10" d="M268.3,57.2c0,0,3.1,2.1,5.5-0.8c0,0-2.1,3.1,0.7,5.2c0,0-2.8-2.4-5.3,0.9C269.2,62.4,271.7,60,268.3,57.2z"/>
<ellipse transform="matrix(0.9481 -0.3179 0.3179 0.9481 -8.0343 54.7398)" class="st10" cx="163.7" cy="52" rx="0.7" ry="0.7"/>
<path class="st10" d="M176,67.4c0,0,3.1-3,0.6-6.4c0,0,3,3.1,6,0.6c0,0-3.5,2.5-0.4,6.2C182.3,67.8,180.2,64.4,176,67.4z"/>
<ellipse transform="matrix(0.8151 -0.5794 0.5794 0.8151 -28.9854 176.5288)" class="st10" cx="262" cy="133.7" rx="0.7" ry="0.7"/>
<ellipse transform="matrix(0.8151 -0.5794 0.5794 0.8151 -14.097 203.4014)" class="st10" cx="311.6" cy="123.8" rx="0.5" ry="0.5"/>
<circle class="st10" cx="242.5" cy="109.4" r="0.6"/>
<circle class="st10" cx="281.3" cy="78.4" r="0.7"/>
<path class="st10" d="M276.5,124.4c0,0,3.7,2.1,6.3-1.3c0,0-2.1,3.7,1.2,5.9c0,0-3.4-2.6-6,1.4C278,130.5,280.7,127.4,276.5,124.4z"
	/>
<path class="st10" d="M265,94.6c0,0,3.7,2.1,6.3-1.3c0,0-2.1,3.7,1.2,5.9c0,0-3.4-2.6-6,1.4C266.4,100.7,269.1,97.6,265,94.6z"/>
<path class="st10" d="M299.9,101.6c0,0,2.3,2.9,5.5,0.9c0,0-2.9,2.3-0.9,5.2c0,0-2-3.2-5.3-0.7C299.2,106.9,302.3,105.4,299.9,101.6
	z"/>
<path class="st10" d="M306.1,140c0,0,2.3,2.9,5.5,0.9c0,0-2.9,2.3-0.9,5.2c0,0-2-3.2-5.3-0.7C305.3,145.3,308.4,143.8,306.1,140z"/>
<ellipse transform="matrix(0.9481 -0.3179 0.3179 0.9481 -47.1009 32.1407)" class="st10" cx="74.9" cy="160.4" rx="0.7" ry="0.7"/>
<ellipse transform="matrix(0.9481 -0.3179 0.3179 0.9481 -37.1352 39.776)" class="st10" cx="103.3" cy="133.7" rx="0.5" ry="0.5"/>
<circle class="st10" cx="51.7" cy="187.4" r="0.6"/>
<circle class="st10" cx="69.5" cy="121.8" r="0.7"/>
<path class="st10" d="M77.3,145.5c0,0,3.1-3,0.6-6.4c0,0,3,3.1,6,0.6c0,0-3.5,2.5-0.4,6.2C83.5,145.9,81.4,142.4,77.3,145.5z"/>
<path class="st10" d="M104.5,155.8c0,0,3.4-1.4,2.5-5c0,0,1.4,3.4,4.7,2.3c0,0-3.6,1-2.3,4.9C109.3,158.1,108.7,154.7,104.5,155.8z"
	/>
</svg>
