<?xml version="1.0" encoding="utf-8"?>
<!-- Generator: Adobe Illustrator 24.1.2, SVG Export Plug-In . SVG Version: 6.00 Build 0)  -->
<svg version="1.1" id="Laag_1" xmlns="http://www.w3.org/2000/svg" xmlns:xlink="http://www.w3.org/1999/xlink" x="0px" y="0px"
	 viewBox="0 0 441 330" style="enable-background:new 0 0 441 330;" xml:space="preserve">
<style type="text/css">
	.st0{fill:#171B1E;}
	.st1{fill:#EDF2F4;}
	.st2{fill:#2D333B;}
	.st3{fill:#D3D2D2;}
	.st4{fill:#FFFFFF;}
	.st5{fill:#F5F3F4;}
	.st6{fill:#D3D3D3;}
	.st7{fill:#22856E;}
	.st8{fill:#006F56;}
	.st9{fill:#0A373E;}
	.st10{fill:#FFFFFF;stroke:#FFFFFF;stroke-miterlimit:10;}
	.st11{fill:#E62B3F;}
	.st12{fill:#DA0D2B;}
	.st13{fill:none;stroke:#2B2D42;stroke-width:0.5;stroke-miterlimit:10;}
	.st14{fill:#2B2D42;}
	.st15{fill:#DA0D2B;stroke:#DA0D2B;stroke-width:0.25;stroke-miterlimit:10;}
	.st16{fill:#21856D;}
</style>
<rect x="0.4" y="-0.2" class="st0" width="441.3" height="331"/>
<path class="st1" d="M173.9,184.1c0,0-85.6-10.7-96.5-3.6S6.2,220,6.2,220s7.8,23.5,45.6,28.6s84.7-4.5,84.7-4.5s50.8-8.5,77.4-0.5
	c26.5,8,56.1-5.6,56.1-5.6l-74.2-54.4L173.9,184.1"/>
<path class="st2" d="M356.9,181.2c0,0,19.3-38.7-18.1-64.3s-34.3-15.6-67-50.2s-46.4-45.9-76.5-50.9s-59.8,18.4-87.7,47.1
	S57.1,111.2,63,143s55,38.9,55,38.9S312.1,247,356.9,181.2z"/>
<circle class="st3" cx="170" cy="47.7" r="11.9"/>
<circle class="st4" cx="160.9" cy="98.6" r="0.8"/>
<circle class="st4" cx="233.7" cy="99.4" r="0.8"/>
<circle class="st4" cx="197.3" cy="29.5" r="0.6"/>
<circle class="st4" cx="193.4" cy="87.3" r="0.7"/>
<circle class="st5" cx="170.9" cy="49.1" r="11.9"/>
<circle class="st4" cx="266.2" cy="74.4" r="0.7"/>
<circle class="st4" cx="134.7" cy="73.4" r="0.7"/>
<circle class="st4" cx="219.4" cy="59.7" r="0.8"/>
<circle class="st4" cx="148" cy="36.5" r="0.8"/>
<circle class="st4" cx="96.9" cy="92.8" r="0.7"/>
<path class="st1" d="M5.6,218.2c0,0,19-30.2,65-35.8c0,0,27.3-15.1,53.1-12.6c25.9,2.4,99.1,36.6,99.1,36.6s11.8,32-8.5,38.5
	S5.6,218.2,5.6,218.2z"/>
<ellipse class="st6" cx="193.1" cy="257.1" rx="126.6" ry="22.5"/>
<path class="st7" d="M0.4,185.8c0,0,5.3,23.4,38.1,23.5s62.1-25.7,91-21.3c28.9,4.3,31.6-10.6,31.6-10.6L0.4,185.8z"/>
<g>
	<polygon class="st6" points="72.1,118.4 139.9,159.9 129.1,182.8 52,184 49.8,157.8 61.5,128.6 	"/>
	<polygon class="st5" points="-0.8,151.7 72.1,118.4 73.3,128.3 62.4,136 72.8,134.5 65.6,152.3 73.8,149.9 69.5,166.3 59,172.1 
		70,172.1 67.7,186.9 0.2,190.3 	"/>
</g>
<g>
	<polygon class="st6" points="142.6,146.4 185.1,178.1 180.4,194.6 135.5,184.1 134.7,158.9 137.7,150.9 	"/>
	<polygon class="st5" points="103,167.9 142.6,146.4 139.4,154.2 144.6,157.1 137.7,167.9 146.8,166.6 141.9,185.8 124.9,200.3 
		103.9,180.4 	"/>
</g>
<path class="st7" d="M19.2,189.3c0,0,34.9-11.7,54.6-11.9s31.8,6.8,39.3,5.6c7.4-1.2,41.6,2.3,41.6,2.3s6.4,9.8,0,8.1
	s-51.7-3-60.1,0.2C86.1,196.8,19.2,189.3,19.2,189.3z"/>
<g>
	<path class="st8" d="M18.5,183.7c0,0,0.9-1.8-0.7-2.9c-1.6-1.1-1.5-0.7-2.9-2.2s-2-2-3.3-2.2s-2.7,0.9-3.9,2.2
		c-1.3,1.3-2.3,2.2-2,3.7c0.2,1.4,2.4,1.7,2.4,1.7S16.5,186.7,18.5,183.7z"/>
	<path class="st9" d="M11.6,180h0.6v4.1c0,0,0.8-0.2,1.7-1.3c0,0,0.3-0.7,0.3-0.9l0.4,0c0,0-0.2,1-0.5,1.3c-0.3,0.3-1.4,1.3-1.7,1.5
		l0,1.4l0.1,5.6h-0.8L11.6,180z"/>
	<path class="st7" d="M20.4,184.4c0,0,0.9-1.8-0.7-2.9s-1.5-0.7-2.9-2.2s-2-2-3.3-2.2s-2.7,0.9-3.9,2.2s-2.3,2.2-2,3.7
		s2.4,1.7,2.4,1.7S18.3,187.4,20.4,184.4z"/>
</g>
<g>
	<path class="st7" d="M33.2,179c0,0,0.9-1.8-0.7-2.9c-1.6-1.1-1.5-0.7-2.9-2.2c-1.4-1.5-2-2-3.3-2.2c-1.3-0.2-2.7,0.9-3.9,2.2
		c-1.3,1.3-2.3,2.2-2,3.7c0.2,1.4,2.4,1.7,2.4,1.7S31.1,182,33.2,179z"/>
	<path class="st9" d="M26.3,175.3h0.6v4.1c0,0,0.8-0.2,1.7-1.3c0,0,0.3-0.7,0.3-0.9l0.4,0c0,0-0.2,1-0.5,1.3
		c-0.3,0.3-1.4,1.3-1.7,1.5l0,1.4l0.1,5.6h-0.8L26.3,175.3z"/>
</g>
<g>
	<path class="st7" d="M43.5,180.4c0,0,0.9-1.8-0.7-2.9c-1.6-1.1-1.5-0.7-2.9-2.2c-1.4-1.5-2-2-3.3-2.2c-1.3-0.2-2.7,0.9-3.9,2.2
		s-2.3,2.2-2,3.7c0.2,1.4,2.4,1.7,2.4,1.7S41.5,183.4,43.5,180.4z"/>
	<path class="st9" d="M36.6,176.7h0.6v4.1c0,0,0.8-0.2,1.7-1.3c0,0,0.3-0.7,0.3-0.9l0.4,0c0,0-0.2,1-0.5,1.3
		c-0.3,0.3-1.4,1.3-1.7,1.5l0,1.4l0.1,5.6h-0.8L36.6,176.7z"/>
	<path class="st8" d="M45.4,181.1c0,0,0.9-1.8-0.7-2.9c-1.6-1.1-1.5-0.7-2.9-2.2c-1.4-1.5-2-2-3.3-2.2c-1.3-0.2-2.7,0.9-3.9,2.2
		c-1.3,1.3-2.3,2.2-2,3.7c0.2,1.4,2.4,1.7,2.4,1.7S43.3,184.1,45.4,181.1z"/>
</g>
<g>
	<path class="st8" d="M28.1,184.1c0,0,0.9-1.8-0.7-2.9c-1.6-1.1-1.5-0.7-2.9-2.2c-1.4-1.5-2-2-3.3-2.2c-1.3-0.2-2.7,0.9-3.9,2.2
		c-1.3,1.3-2.3,2.2-2,3.7s2.4,1.7,2.4,1.7S26.1,187.1,28.1,184.1z"/>
	<path class="st9" d="M21.2,180.4h0.6v4.1c0,0,0.8-0.2,1.7-1.3c0,0,0.3-0.7,0.3-0.9l0.4,0c0,0-0.2,1-0.5,1.3s-1.4,1.3-1.7,1.5l0,1.4
		l0.1,5.6h-0.8L21.2,180.4z"/>
</g>
<path class="st1" d="M7.8,215.1c0,0-5.3,2.7-0.3,8c5,5.3,9.3,0.9,9.3,0.9L7.8,215.1z"/>
<g>
	<path class="st8" d="M87.1,177.9c0,0,0.9-1.8-0.7-2.9c-1.6-1.1-1.5-0.7-2.9-2.2c-1.4-1.5-2-2-3.3-2.2c-1.3-0.2-2.7,0.9-3.9,2.2
		c-1.3,1.3-2.3,2.2-2,3.7s2.4,1.7,2.4,1.7S85,180.9,87.1,177.9z"/>
	<path class="st9" d="M80.1,174.2h0.6v4.1c0,0,0.8-0.2,1.7-1.3c0,0,0.3-0.7,0.3-0.9l0.4,0c0,0-0.2,1-0.5,1.3s-1.4,1.3-1.7,1.5l0,1.4
		l0.1,5.6h-0.8L80.1,174.2z"/>
	<path class="st7" d="M88.9,178.6c0,0,0.9-1.8-0.7-2.9c-1.6-1.1-1.5-0.7-2.9-2.2c-1.4-1.5-2-2-3.3-2.2c-1.3-0.2-2.7,0.9-3.9,2.2
		c-1.3,1.3-2.3,2.2-2,3.7s2.4,1.7,2.4,1.7S86.9,181.6,88.9,178.6z"/>
</g>
<g>
	<path class="st7" d="M101.7,173.2c0,0,0.9-1.8-0.7-2.9c-1.6-1.1-1.5-0.7-2.9-2.2s-2-2-3.3-2.2c-1.3-0.2-2.7,0.9-3.9,2.2
		c-1.3,1.3-2.3,2.2-2,3.7s2.4,1.7,2.4,1.7S99.6,176.2,101.7,173.2z"/>
	<path class="st9" d="M94.8,169.5h0.6v4.1c0,0,0.8-0.2,1.7-1.3c0,0,0.3-0.7,0.3-0.9l0.4,0c0,0-0.2,1-0.5,1.3
		c-0.3,0.3-1.4,1.3-1.7,1.5l0,1.4l0.1,5.6H95L94.8,169.5z"/>
</g>
<g>
	<path class="st7" d="M112.1,174.6c0,0,0.9-1.8-0.7-2.9c-1.6-1.1-1.5-0.7-2.9-2.2c-1.4-1.5-2-2-3.3-2.2c-1.3-0.2-2.7,0.9-3.9,2.2
		c-1.3,1.3-2.3,2.2-2,3.7s2.4,1.7,2.4,1.7S110,177.6,112.1,174.6z"/>
	<path class="st9" d="M105.1,170.9h0.6v4.1c0,0,0.8-0.2,1.7-1.3c0,0,0.3-0.7,0.3-0.9l0.4,0c0,0-0.2,1-0.5,1.3
		c-0.3,0.3-1.4,1.3-1.7,1.5l0,1.4l0.1,5.6h-0.8L105.1,170.9z"/>
	<path class="st8" d="M113.9,175.3c0,0,0.9-1.8-0.7-2.9s-1.5-0.7-2.9-2.2c-1.4-1.5-2-2-3.3-2.2c-1.3-0.2-2.7,0.9-3.9,2.2
		c-1.3,1.3-2.3,2.2-2,3.7s2.4,1.7,2.4,1.7S111.9,178.3,113.9,175.3z"/>
</g>
<g>
	<path class="st8" d="M96.6,178.3c0,0,0.9-1.8-0.7-2.9c-1.6-1.1-1.5-0.7-2.9-2.2c-1.4-1.5-2-2-3.3-2.2s-2.7,0.9-3.9,2.2
		c-1.3,1.3-2.3,2.2-2,3.7c0.2,1.4,2.4,1.7,2.4,1.7S94.6,181.3,96.6,178.3z"/>
	<path class="st9" d="M89.7,174.6h0.6v4.1c0,0,0.8-0.2,1.7-1.3c0,0,0.3-0.7,0.3-0.9l0.4,0c0,0-0.2,1-0.5,1.3
		c-0.3,0.3-1.4,1.3-1.7,1.5l0,1.4l0.1,5.6h-0.8L89.7,174.6z"/>
</g>
<path class="st7" d="M154.6,185.3c0,0,70.6,0,79.3,1.5c8.8,1.5,71.7,16.9,71.7,16.9l-60.5,23.7l-90.6-34.1V185.3z"/>
<g>
	<g>
		<g>
			<polygon class="st5" points="206.7,194.2 206.7,240.1 174.5,239.1 176.4,194.2 			"/>
			<g>
				<polygon class="st3" points="328.1,158.5 328.1,226.8 302.7,226.8 302.7,159.7 302.7,158.9 302.7,152.6 325.2,152.6 325.3,158 
									"/>
				<polygon class="st5" points="302.7,152.6 287.5,152.6 287.5,158.8 284.8,158.8 284.8,226.8 302.7,226.8 				"/>
				<g>
					<polygon class="st3" points="159.5,160.3 159.5,213.1 195,213.1 195,161.3 195,160.6 195,155.8 163.5,155.8 163.3,159.9 					
						"/>
					<polygon class="st5" points="180.9,155.8 202.2,155.8 202.2,160.5 205.9,160.5 205.9,213.1 180.9,213.1 					"/>
					<rect x="163.7" y="167.6" class="st5" width="4.9" height="10"/>
					<rect x="171.4" y="167.5" class="st5" width="4.9" height="10"/>
					<rect x="164" y="179.7" class="st5" width="4.9" height="10"/>
					<rect x="171.6" y="179.6" class="st5" width="4.9" height="10"/>
					<rect x="171.4" y="191.7" class="st5" width="4.9" height="10"/>
				</g>
				<g>
					<polygon class="st3" points="285.2,158.9 285.2,220.1 245.2,220.1 245.2,160 245.2,159.3 245.2,153.6 280.6,153.6 280.8,158.4 
											"/>
					<polygon class="st5" points="261,153.6 237.1,153.6 237.1,159.1 232.8,159.1 232.8,220.1 261,220.1 					"/>
					
						<rect x="274.9" y="167.3" transform="matrix(-1 -1.224647e-16 1.224647e-16 -1 555.2462 346.2268)" class="st5" width="5.5" height="11.6"/>
					
						<rect x="266.2" y="167.3" transform="matrix(-1 -1.224647e-16 1.224647e-16 -1 537.9308 346.1328)" class="st5" width="5.5" height="11.6"/>
					
						<rect x="274.6" y="181.3" transform="matrix(-1 -1.224647e-16 1.224647e-16 -1 554.6897 374.2223)" class="st5" width="5.5" height="11.6"/>
					
						<rect x="265.9" y="181.3" transform="matrix(-1 -1.224647e-16 1.224647e-16 -1 537.3743 374.1283)" class="st5" width="5.5" height="11.6"/>
					
						<rect x="266.2" y="195.2" transform="matrix(-1 -1.224647e-16 1.224647e-16 -1 537.8851 402.0155)" class="st5" width="5.5" height="11.6"/>
				</g>
				<polygon class="st6" points="180.6,194 148.5,194 148.2,229.3 180.9,229.3 				"/>
				<polygon class="st10" points="180.5,194.3 173.2,189.6 148.8,189.6 148.8,194.3 				"/>
				<polygon class="st6" points="233.9,194.3 204.9,194.5 204.9,239.9 233.9,236 				"/>
				<polyline class="st6" points="200.1,199.6 192.1,199.1 192.2,214.7 200.1,216.6 200.1,200 				"/>
				<polyline class="st6" points="187.5,198.8 179.5,198.3 179.6,213.9 187.5,215.8 187.5,199.2 				"/>
				<polyline class="st6" points="198.6,219.2 190.6,218.7 190.7,234.3 198.6,236.2 198.6,219.6 				"/>
				<polyline class="st6" points="186.7,218.2 178.7,217.6 178.8,233.2 186.7,235.1 186.7,218.6 				"/>
				<g>
					<g>
						<polygon class="st5" points="302.7,220.7 261.2,220.7 261.2,203.7 233.9,203.7 233.9,263.7 302.7,263.7 						"/>
						<polygon class="st3" points="233.9,203.7 206.7,203.7 206.7,238.2 185,238.2 185,265 233.9,263.7 						"/>
					</g>
					<polygon class="st3" points="303.4,231.7 303.4,217.6 305.6,217.6 305.6,215.3 283.7,215.3 283.7,263.5 303.1,263.5 					"/>
					
						<rect x="249.8" y="205.1" transform="matrix(-1 -1.224647e-16 1.224647e-16 -1 504.996 423.5028)" class="st3" width="5.5" height="13.4"/>
					
						<rect x="240.4" y="205.1" transform="matrix(-1 -1.224647e-16 1.224647e-16 -1 486.2227 423.5028)" class="st3" width="5.5" height="13.4"/>
					
						<rect x="249.8" y="221.4" transform="matrix(-1 -1.224647e-16 1.224647e-16 -1 504.996 456.1332)" class="st3" width="5.5" height="13.4"/>
					
						<rect x="240.4" y="221.4" transform="matrix(-1 -1.224647e-16 1.224647e-16 -1 486.2227 456.1332)" class="st3" width="5.5" height="13.4"/>
					
						<rect x="249.8" y="237.8" transform="matrix(-1 -1.224647e-16 1.224647e-16 -1 504.996 488.9279)" class="st3" width="5.5" height="13.4"/>
					
						<rect x="240.4" y="237.8" transform="matrix(-1 -1.224647e-16 1.224647e-16 -1 486.2227 488.9279)" class="st3" width="5.5" height="13.4"/>
					<polygon class="st5" points="283.7,215.2 261.2,215.2 261.3,221.4 283.7,221.4 					"/>
					
						<rect x="274.5" y="218.2" transform="matrix(-1 -1.224647e-16 1.224647e-16 -1 555.1174 447.3558)" class="st3" width="6.1" height="11"/>
					
						<rect x="264.1" y="218.2" transform="matrix(-1 -1.224647e-16 1.224647e-16 -1 534.2444 447.3558)" class="st3" width="6.1" height="11"/>
					
						<rect x="274.5" y="232.2" transform="matrix(-1 -1.224647e-16 1.224647e-16 -1 555.1174 475.3387)" class="st3" width="6.1" height="11"/>
					
						<rect x="264.1" y="232.2" transform="matrix(-1 -1.224647e-16 1.224647e-16 -1 534.2444 475.3387)" class="st3" width="6.1" height="11"/>
					
						<rect x="274.9" y="246.2" transform="matrix(-1 -1.224647e-16 1.224647e-16 -1 555.8032 503.3216)" class="st3" width="6.1" height="11"/>
					
						<rect x="264.4" y="246.2" transform="matrix(-1 -1.224647e-16 1.224647e-16 -1 534.9302 503.3216)" class="st3" width="6.1" height="11"/>
				</g>
				<polygon class="st6" points="186.9,224.3 143,224.2 142.6,266.8 187.4,266.8 				"/>
				<polygon class="st10" points="186.3,224.3 176.4,218.6 142.9,218.6 143,224.3 				"/>
				
					<rect x="172.4" y="228.2" transform="matrix(-1 -1.224647e-16 1.224647e-16 -1 353.2924 472.5903)" class="st5" width="8.4" height="16.1"/>
				
					<rect x="159.2" y="228.2" transform="matrix(-1 -1.224647e-16 1.224647e-16 -1 326.9123 472.5903)" class="st5" width="8.4" height="16.1"/>
				
					<rect x="146.3" y="228.2" transform="matrix(-1 -1.224647e-16 1.224647e-16 -1 301.0597 472.5903)" class="st5" width="8.4" height="16.1"/>
				
					<rect x="172.2" y="245.4" transform="matrix(-1 -1.224647e-16 1.224647e-16 -1 352.7648 506.9878)" class="st5" width="8.4" height="16.1"/>
				
					<rect x="159" y="245.4" transform="matrix(-1 -1.224647e-16 1.224647e-16 -1 326.3846 506.9878)" class="st5" width="8.4" height="16.1"/>
			</g>
		</g>
		
			<rect x="146.1" y="245.6" transform="matrix(-1 -1.224647e-16 1.224647e-16 -1 300.9239 507.2429)" class="st5" width="8.7" height="16.1"/>
	</g>
	
		<rect x="274.6" y="195.1" transform="matrix(-1 -1.224647e-16 1.224647e-16 -1 554.7766 401.9174)" class="st5" width="5.7" height="11.7"/>
</g>
<path class="st11" d="M411.6,112.8c0,0-15.3-35.6-66.6-44c0,0-15.2-1.5-30.1-34.4C299.9,1.5,276-5,276-5l-72.2-3.9
	c0,0,52.5,39.2,60.1,53.7c7.6,14.5,17.8,42.3,63,53.7s61.4,21.2,61.4,21.2L411.6,112.8z"/>
<path class="st7" d="M414.4,117.2c0,0-17.8-40-71.4-46.4c0,0-15.8-0.8-33.1-37.7S267.6-9.9,267.6-9.9h-74.9c0,0,56.5,41.8,65.2,58
	c8.7,16.2,20.8,47.6,68.1,57.9s64.7,20.6,64.7,20.6L414.4,117.2z"/>
<path class="st11" d="M412.4,126c0,0,5.9,21.7-33.9,47.5s-25.5,52.7-30.3,63.5c-4.9,10.8-11.2,19.5-38.4,30.7s-29.8,18.8-36,53.4
	h-95.1c0,0,23.3-40.2,62.4-55.5s47.8-31,47.8-31s23.4-34.2,30-64.9c6.6-30.7,67.1-47.8,67.1-47.8L412.4,126z"/>
<path class="st7" d="M408.5,123.7c0,0,6.2,21.9-35.3,48s-26.6,53.3-31.7,64.2c-5.1,10.9-11.6,19.8-40,31c-28.4,11.3-31.1,19-37.6,54
	h-99.2c0,0,24.3-40.6,65-56.1s49.9-31.4,49.9-31.4s24.4-34.6,31.3-65.6c6.9-31,70-48.4,70-48.4L408.5,123.7z"/>
<path class="st6" d="M396,141.9c0,0,1.6-5.3-0.5-7.3c-2-2-4.2-2.7-4.2-2.7s5.4,0.2,7.5-4c0,0,0.8,7,2.9,7.7l-2.9,7.4L396,141.9z"/>
<path class="st5" d="M387.4,116c0,0-1.3,4.3-2.7,4.9c-1.3,0.6,1.3,2.1,1.3,2.1s-2.3,8.2-0.2,8.7c2.1,0.5,7.3,0.5,7.3,0.5
	s6.1-1.2,5.9-3.8c-0.2-2.6,3.8-4.9,3.8-4.9l-4-9l-5.9-6.1l-2-1.7L387.4,116z"/>
<path class="st12" d="M403.7,176.4c0,0-4.5,4.8-1.9,12l-17.8,7.1c0,0-6-17.6-5.4-25.9s6.8-20.3,16.6-27.4l8.5-0.7l3.8,25.3
	L403.7,176.4z"/>
<polygon class="st5" points="388.6,298.8 391.8,318.5 395.8,318.5 395.8,297 "/>
<polygon class="st6" points="400,297 403,318.5 407.1,318.5 407.1,295.9 "/>
<path class="st6" d="M403.2,318.5c0,0-13.2,0-13.1,3.7l0,1.8h17.8c0,0-0.3-4.9-0.8-5.5H403.2z"/>
<path class="st5" d="M391.8,318.5c0,0-13.2,0-13.1,3.7l0,1.8h17.8c0,0-0.3-4.9-0.8-5.5H391.8z"/>
<polyline class="st13" points="392.9,116.6 391.1,114.9 388.7,114.6 "/>
<ellipse class="st14" cx="389" cy="118.1" rx="0.7" ry="1.3"/>
<path class="st15" d="M388.5,126.2l-2.7-1.5l-0.4,1.8C385.4,126.5,387.7,127,388.5,126.2z"/>
<path class="st8" d="M400.5,189.1c0,0,30.1,66.4,29.6,96.6c0,0-0.4,4.9-6,3.5c-5.6-1.4-12.7,6.5-12.7,6.5s-13,4.2-19.5,2.8l-5-104.3
	L400.5,189.1z"/>
<path class="st16" d="M384.3,195.2c0,0-17.5,31.3-13.5,99.1c0,0-0.1,1.2,3.5,2.7c3.6,1.6,17.5,1.5,17.5,1.5l-5-104.3L384.3,195.2z"
	/>
<path class="st8" d="M386.8,194.2c0,0-7.8,71.2,5,104.3c0,0,5.2,0.4,8.3-0.2l-9.7-105.5L386.8,194.2z"/>
<path class="st5" d="M406.4,165.1c0,0-5.7,8.9-8.8,12.9c-3.1,4-3.3,9-3.3,9s-0.6,7.6-9,21.9c-8.5,14.3-9.2,15.7-9.2,15.7l1.8-11.3
	l4.9-14.4l14.2-38L406.4,165.1z"/>
<path class="st14" d="M421.6,147.7c0,0,0-4.8-1.8-6.9s-4.9-4.6-4.9-4.6s-2.2-0.8-0.5-9.5s-0.6-11-0.6-11l-19.7-8.8l-3.2-1.4
	c0,0-5.7,1.8-3.5,10.6c0,0,0.4,0.6,0.9,0.1c0.5-0.6-0.1-3.3,0.3-3.7c0,0,2-4.7,4.2-4.9c0,0-1.4,4,1.9,6.9c3.2,3,3.9,2.7,3.9,2.7
	s-0.3,18.3,3.7,20.8c4,2.5,6.1,30.2,6.1,30.2l-3.5,8.4c0,0,3.2,2.4,12.4,0s8.3-14.1,8.3-14.1s-0.8-4.6-2.6-7.1
	S421.6,147.7,421.6,147.7z"/>
<path class="st14" d="M390.9,105.3c0,0,6.6-3.3,15.3,1.3c0,0,5.8,3.4,7.5,9l-0.5,7.3l-22.3-16.3L390.9,105.3z"/>
<g>
	<path class="st3" d="M151.2,53.4c0,0,4.3-8.2,15.4-3.7c0,0,6.9-5.1,14.3-1.9s6.7,11.3,6.7,11.3s1.7-1.1,3.2,0.3
		c1.5,1.4,0.5,4.4,0.5,4.4s5.6,0.2,4.6,4.9c-1,4.7-5.1,3.6-5.1,3.6s-2.3,1.4-5.7,1.7c-3.4,0.3-5.3-1.1-5.3-1.1s-0.3,1.7-4.6,3
		c0,0-0.3,3.1-7.4,4.1c-7.2,1-14.4-8.7-14.4-8.7L151.2,53.4z"/>
	<path class="st3" d="M170.7,51c0,0-4.3-8.2-15.4-3.7c0,0-6.9-5.1-14.3-1.9c-7.4,3.2-6.7,11.3-6.7,11.3s-1.7-1.1-3.2,0.3
		c-1.5,1.4-0.5,4.4-0.5,4.4s-5.6,0.2-4.6,4.9c1,4.7,5.1,3.6,5.1,3.6s2.3,1.4,5.7,1.7c3.4,0.3,5.3-1.1,5.3-1.1s0.3,1.7,4.6,3
		c0,0,0.3,3.1,7.4,4.1s14.4-8.7,14.4-8.7L170.7,51z"/>
</g>
<g>
	<path class="st5" d="M152,57.6c0,0,4.3-8.2,15.4-3.7c0,0,6.9-5.1,14.3-1.9s6.7,11.3,6.7,11.3s1.7-1.1,3.2,0.3
		c1.5,1.4,0.5,4.4,0.5,4.4s5.6,0.2,4.6,4.9c-1,4.7-5.1,3.6-5.1,3.6s-2.3,1.4-5.7,1.7c-3.4,0.3-5.3-1.1-5.3-1.1s-0.3,1.7-4.6,3
		c0,0-0.3,3.1-7.4,4.1S154,75.6,154,75.6L152,57.6z"/>
	<path class="st5" d="M171.5,55.3c0,0-4.3-8.2-15.4-3.7c0,0-6.9-5.1-14.3-1.9s-6.7,11.3-6.7,11.3s-1.7-1.1-3.2,0.3
		c-1.5,1.4-0.5,4.4-0.5,4.4s-5.6,0.2-4.6,4.9c1,4.7,5.1,3.6,5.1,3.6s2.3,1.4,5.7,1.7c3.4,0.3,5.3-1.1,5.3-1.1s0.3,1.7,4.6,3
		c0,0,0.3,3.1,7.4,4.1s14.4-8.7,14.4-8.7L171.5,55.3z"/>
</g>
<path class="st5" d="M374.3,228.7l-0.3,0.5c0,0,2.6-14.7,3.9-15.9l0.3,5.5l-2.1,6.6L374.3,228.7z"/>
<path class="st6" d="M403.1,164.5c0,0-9.7,17.4-10.2,21c-0.5,3.5-3.1,13.4-4.7,16.1c-1.6,2.7-13.4,24.3-13.4,24.3l-0.5,2.9l8.5-14.5
	c0,0,9.1-14.7,9.7-20.4c0,0,1.1-4.1,1.5-7.5c0.4-3.4,5.8-10.4,5.8-10.4l6.6-9.9L403.1,164.5z"/>
<path class="st12" d="M412.7,169.7l-22.2-11c0,0,8.4-26.4,15.7-22.9c7.3,3.5,7.7,10.5,7.7,10.5S416.1,155.2,412.7,169.7z"/>
</svg>
